<?xml version="1.0" encoding="UTF-8"?>
<svg id="Warstwa_1" data-name="Warstwa 1" xmlns="http://www.w3.org/2000/svg" viewBox="0 0 908.7 226.91">
  <defs>
    <style>
      .cls-1, .cls-2 {
        stroke-width: 0px;
      }

      .cls-2, .cls-3 {
        fill: #fff;
      }

      .cls-3 {
        font-family: ProstoOne-Regular, 'Prosto One';
        font-size: 172.48px;
        stroke: #000;
        stroke-miterlimit: 10;
      }
    </style>
  </defs>
  <text class="cls-3" transform="translate(157.06 175.53) scale(.95 1)"><tspan x="0" y="0">CINEMA</tspan></text>
  <g>
    <path class="cls-2" d="M19.89,179.77c-6.05,0-10.97-4.92-10.97-10.97v-84.85c0-1.97.54-3.91,1.57-5.62l.24-.39-.37-.27c-1.62-1.18-2.88-2.77-3.65-4.61l-4.85-11.56c-1.13-2.7-1.14-5.68-.03-8.39,1.11-2.71,3.21-4.83,5.9-5.96L115.7,1.85c1.35-.56,2.77-.85,4.22-.85,4.44,0,8.42,2.64,10.13,6.72l4.85,11.56c1.13,2.69,1.14,5.67.03,8.39-1.11,2.72-3.21,4.83-5.9,5.96l-93.79,39.35h101.74c2.92,0,5.68,1.14,7.75,3.22s3.22,4.83,3.22,7.75v84.85c0,6.05-4.92,10.97-10.97,10.97H19.89ZM17.75,168.81c0,1.16.98,2.14,2.14,2.14h117.1c.56,0,1.1-.22,1.51-.63.41-.41.63-.94.63-1.5v-61.35H17.75v61.35ZM122.45,98.63h16.67v-14.67c0-1.16-.98-2.14-2.14-2.14h-7.18l-7.35,16.81ZM92.29,98.63h24.1l7.35-16.81h-24.1l-7.35,16.81ZM62.13,98.63h24.1l7.35-16.81h-24.1l-7.35,16.81ZM31.96,98.63h24.1l7.35-16.81h-24.1l-7.35,16.81ZM19.89,81.81c-1.16,0-2.14.98-2.14,2.14v14.67h8.16l7.35-16.81h-13.37ZM11.14,55.29c-.7.29-1.02.86-1.15,1.17-.13.31-.29.93,0,1.63l4.85,11.56c.38.9,1.27,1.31,1.99,1.31.28,0,.55-.06.81-.16l5.52-2.31.28-18.35-12.3,5.16ZM29.03,47.79l-.28,18.35,22.23-9.32.28-18.35-22.22,9.32ZM56.84,36.12l-.28,18.35,22.22-9.32.28-18.35-22.23,9.32ZM84.65,24.45l-.28,18.35,22.22-9.32.28-18.35-22.22,9.32ZM119.93,9.83c-.28,0-.55.06-.81.16l-6.65,2.79-.28,18.35,13.43-5.64c.7-.3,1.02-.86,1.15-1.17.13-.31.29-.93,0-1.63l-4.85-11.56c-.38-.9-1.27-1.31-1.99-1.31Z"/>
    <path class="cls-1" d="M119.93,1.5c4.24,0,8.04,2.52,9.67,6.41l4.85,11.56c1.08,2.57,1.09,5.42.03,8.01-1.06,2.59-3.06,4.61-5.63,5.69l-91.5,38.39-4.58,1.92h104.22c2.79,0,5.42,1.09,7.4,3.07,1.98,1.98,3.07,4.61,3.07,7.4v84.85c0,5.77-4.7,10.47-10.47,10.47H19.89c-5.77,0-10.47-4.7-10.47-10.47v-84.85c0-1.88.52-3.73,1.5-5.36l.47-.78-.74-.54c-1.54-1.12-2.75-2.65-3.48-4.4l-4.85-11.56c-1.08-2.57-1.09-5.42-.03-8.01,1.06-2.59,3.06-4.61,5.64-5.69L115.9,2.31c1.28-.54,2.64-.81,4.03-.81M111.68,31.89l1.41-.59,12.73-5.34c.87-.37,1.26-1.06,1.41-1.43.16-.38.36-1.15,0-2.02l-4.85-11.56c-.47-1.12-1.57-1.61-2.45-1.61-.35,0-.68.07-1,.2l-6.35,2.66-.6.25v.65s-.27,17.26-.27,17.26l-.02,1.53M83.86,43.56l1.41-.59,21.22-8.9.6-.25v-.65s.27-17.26.27-17.26l.02-1.53-1.41.59-21.22,8.9-.6.25v.65s-.27,17.26-.27,17.26l-.02,1.53M56.05,55.22l1.41-.59,21.22-8.9.6-.25v-.65s.27-17.26.27-17.26l.02-1.53-1.41.59-21.22,8.9-.6.25v.65s-.27,17.26-.27,17.26l-.02,1.53M28.24,66.89l1.41-.59,21.22-8.9.6-.25v-.65s.27-17.26.27-17.26l.02-1.53-1.41.59-21.22,8.9-.6.25v.65s-.27,17.26-.27,17.26l-.02,1.53M16.83,71.46c.35,0,.68-.07,1-.2l5.22-2.19.6-.25v-.65s.27-17.26.27-17.26l.02-1.53-1.41.59-11.59,4.86c-.87.36-1.26,1.06-1.41,1.44-.16.38-.36,1.15,0,2.02l4.85,11.56c.47,1.12,1.57,1.61,2.45,1.61M121.68,99.13h17.94v-15.17c0-1.43-1.21-2.64-2.64-2.64h-7.51l-.26.6-6.92,15.81-.61,1.4M91.52,99.13h25.19l.26-.6,6.92-15.81.61-1.4h-25.19l-.26.6-6.92,15.81-.61,1.4M61.36,99.13h25.19l.26-.6,6.92-15.81.61-1.4h-25.19l-.26.6-6.92,15.81-.61,1.4M31.2,99.13h25.19l.26-.6,6.92-15.81.61-1.4h-25.19l-.26.6-6.92,15.81-.61,1.4M17.25,99.13h8.98l.26-.6,6.92-15.81.61-1.4h-14.14c-1.43,0-2.64,1.21-2.64,2.64v15.17M19.89,171.45h117.1c.7,0,1.36-.28,1.86-.78.5-.5.78-1.16.78-1.86v-61.85H17.25v61.85c0,1.43,1.21,2.64,2.64,2.64M119.93.5c-1.52,0-3.01.3-4.42.89L7.53,46.69c-5.83,2.44-8.59,9.18-6.14,15.01l4.85,11.56c.83,1.97,2.16,3.62,3.81,4.82-1.03,1.72-1.64,3.73-1.64,5.87v84.85c0,6.32,5.14,11.47,11.47,11.47h117.1c6.32,0,11.47-5.14,11.47-11.47v-84.85c0-6.32-5.14-11.47-11.47-11.47H37.73l91.5-38.39c2.82-1.18,5.01-3.4,6.17-6.24,1.16-2.84,1.15-5.96-.03-8.77l-4.85-11.56c-1.79-4.27-5.95-7.03-10.59-7.03h0ZM112.7,30.37l.26-17.26,6.35-2.66c.2-.08.4-.12.62-.12.55,0,1.24.31,1.53,1l4.85,11.56c.22.54.1,1.01,0,1.25-.1.24-.34.67-.87.89l-12.73,5.34h0ZM84.89,42.04l.26-17.26,21.22-8.9-.26,17.26-21.22,8.9h0ZM57.07,53.71l.26-17.26,21.22-8.9-.26,17.26-21.22,8.9h0ZM29.26,65.38l.26-17.26,21.22-8.9-.26,17.26-21.22,8.9h0ZM16.83,70.46c-.55,0-1.24-.31-1.53-1l-4.85-11.56c-.22-.54-.1-1.01,0-1.25.1-.24.34-.67.88-.89l11.59-4.86-.26,17.26-5.22,2.19c-.2.08-.4.12-.62.12h0ZM123.21,98.13l6.92-15.81h6.85c.89,0,1.64.75,1.64,1.64v14.17h-15.41ZM93.05,98.13l6.92-15.81h23.01l-6.92,15.81h-23.01ZM62.89,98.13l6.92-15.81h23.01l-6.92,15.81h-23.01ZM32.73,98.13l6.92-15.81h23.01l-6.92,15.81h-23.01ZM18.25,98.13v-14.17c0-.89.75-1.64,1.64-1.64h12.61l-6.92,15.81h-7.33ZM19.89,170.45c-.89,0-1.64-.75-1.64-1.64v-60.85h120.37v60.85c0,.89-.75,1.64-1.64,1.64H19.89Z"/>
  </g>
</svg>