<?xml version="1.0" encoding="UTF-8"?>
<svg id="Warstwa_1" data-name="Warstwa 1" xmlns="http://www.w3.org/2000/svg" viewBox="0 0 907.7 225.91">
  <defs>
    <style>
      .cls-1 {
        fill: #000002;
        stroke-width: 0px;
      }

      .cls-2 {
        font-family: ProstoOne-Regular, 'Prosto One';
        font-size: 172.48px;
      }
    </style>
  </defs>
  <text class="cls-2" transform="translate(156.56 175.03) scale(.95 1)"><tspan x="0" y="0">CINEMA</tspan></text>
  <path class="cls-1" d="M136.48,71.99H37.23l91.5-38.39c2.82-1.18,5.01-3.4,6.17-6.24,1.16-2.84,1.15-5.96-.03-8.77l-4.85-11.56c-1.79-4.27-5.95-7.03-10.59-7.03-1.52,0-3.01.3-4.42.89L7.03,46.19c-5.83,2.44-8.59,9.18-6.14,15.01l4.85,11.56c.83,1.97,2.16,3.62,3.81,4.82-1.03,1.72-1.64,3.73-1.64,5.87v84.85c0,6.32,5.14,11.47,11.47,11.47h117.1c6.32,0,11.47-5.14,11.47-11.47v-84.85c0-6.32-5.14-11.47-11.47-11.47ZM138.12,83.45v14.17h-15.41l6.92-15.81h6.85c.89,0,1.64.75,1.64,1.64ZM19.39,81.81h12.61l-6.92,15.81h-7.33v-14.17c0-.89.75-1.64,1.64-1.64ZM39.15,81.81h23.01l-6.92,15.81h-23.01l6.92-15.81ZM69.31,81.81h23.01l-6.92,15.81h-23.01l6.92-15.81ZM99.47,81.81h23.01l-6.92,15.81h-23.01l6.92-15.81ZM77.79,44.31l-21.22,8.9.26-17.26,21.22-8.9-.26,17.26ZM84.65,24.29l21.22-8.9-.26,17.26-21.22,8.9.26-17.26ZM49.98,55.98l-21.22,8.9.26-17.26,21.22-8.9-.26,17.26ZM118.81,9.95c.2-.08.4-.12.62-.12.55,0,1.24.31,1.53,1l4.85,11.56c.22.54.1,1.01,0,1.25-.1.24-.34.67-.87.89l-12.73,5.34.26-17.26,6.35-2.66ZM9.96,56.15c.1-.24.34-.67.88-.89l11.59-4.86-.26,17.26-5.22,2.19c-.2.08-.4.12-.62.12-.55,0-1.24-.31-1.53-1l-4.85-11.56c-.22-.54-.1-1.01,0-1.25ZM136.48,169.95H19.39c-.89,0-1.64-.75-1.64-1.64v-60.85h120.37v60.85c0,.89-.75,1.64-1.64,1.64Z"/>
</svg>